<svg xmlns="http://www.w3.org/2000/svg" viewBox="0 0 600 400"><defs><linearGradient id="hull" x2="1" y2="1"><stop stop-color="#fbfbfb"/><stop offset=".4" stop-color="#c2c2c3"/><stop offset="1" stop-color="#77777b"/></linearGradient><radialGradient id="s"><stop stop-color="#000" stop-opacity=".17"/><stop offset="1" stop-color="#000" stop-opacity="0"/></radialGradient></defs><ellipse cx="310" cy="293" rx="160" ry="27" fill="url(#s)"/><g stroke="#9e9ea1" stroke-width="1"><path d="M164 237L361 134L389 157L217 278Q176 279 164 237" fill="url(#hull)"/><path d="M249 278L440 175L465 199L302 318Q261 317 249 278" fill="url(#hull)"/><path d="M218 223L326 164L423 216L315 278Z" fill="#eee"/><path d="M280 202L327 176L378 205L331 234Z" fill="#aaa"/><path d="M280 179L327 154L378 182L331 211Z" fill="#f3f3f3"/><path d="M280 181L331 210L331 231L280 203Z" fill="#3c3c40"/><path d="M331 210L378 182L378 204L331 231Z" fill="#67676b"/></g><path d="M331 174L331 122M315 128L348 128" fill="none" stroke="#68686c" stroke-width="5"/><ellipse cx="331" cy="120" rx="9" ry="5" fill="#bbb"/></svg>
